{
  "asset": {
    "generator": "glTF-Transform v4.4.1",
    "version": "2.0"
  },
  "accessors": [
    {
      "name": "Box-A-positions",
      "type": "VEC3",
      "componentType": 5126,
      "count": 8,
      "max": [
        0.5,
        0.5,
        0.5
      ],
      "min": [
        -0.5,
        -0.5,
        -0.5
      ],
      "bufferView": 0,
      "byteOffset": 0
    },
    {
      "name": "Box-A-indices",
      "type": "SCALAR",
      "componentType": 5123,
      "count": 36,
      "bufferView": 1,
      "byteOffset": 0
    },
    {
      "name": "Box-B-indices",
      "type": "SCALAR",
      "componentType": 5123,
      "count": 36,
      "bufferView": 1,
      "byteOffset": 72
    },
    {
      "name": "Box-B-positions",
      "type": "VEC3",
      "componentType": 5126,
      "count": 8,
      "max": [
        0.4000000059604645,
        0.4000000059604645,
        0.4000000059604645
      ],
      "min": [
        -0.4000000059604645,
        -0.4000000059604645,
        -0.4000000059604645
      ],
      "bufferView": 2,
      "byteOffset": 0
    }
  ],
  "bufferViews": [
    {
      "buffer": 0,
      "byteOffset": 0,
      "byteLength": 96,
      "byteStride": 12,
      "target": 34962
    },
    {
      "buffer": 0,
      "byteOffset": 96,
      "byteLength": 144,
      "target": 34963
    },
    {
      "buffer": 0,
      "byteOffset": 240,
      "byteLength": 96,
      "byteStride": 12,
      "target": 34962
    }
  ],
  "buffers": [
    {
      "uri": "two-box.bin",
      "byteLength": 336
    }
  ],
  "meshes": [
    {
      "name": "Box-A",
      "primitives": [
        {
          "attributes": {
            "POSITION": 0
          },
          "mode": 4,
          "indices": 1
        }
      ]
    },
    {
      "name": "Box-B",
      "primitives": [
        {
          "attributes": {
            "POSITION": 3
          },
          "mode": 4,
          "indices": 2
        }
      ]
    }
  ],
  "nodes": [
    {
      "name": "Box-A",
      "translation": [
        -1,
        0,
        0
      ],
      "mesh": 0
    },
    {
      "name": "Box-B",
      "translation": [
        1,
        0,
        0
      ],
      "mesh": 1
    }
  ],
  "scenes": [
    {
      "name": "Scene",
      "nodes": [
        0,
        1
      ]
    }
  ]
}